<?xml version="1.0" standalone="no"?><!DOCTYPE svg PUBLIC "-//W3C//DTD SVG 1.1//EN" "http://www.w3.org/Graphics/SVG/1.1/DTD/svg11.dtd"><svg t="1510245225605" class="icon" style="" viewBox="0 0 1024 1024" version="1.1" xmlns="http://www.w3.org/2000/svg" p-id="1448" xmlns:xlink="http://www.w3.org/1999/xlink" width="16" height="16"><defs><style type="text/css"></style></defs><path d="M512 854.016q139.989333 0 240.981333-100.992t100.992-240.981333-100.992-240.981333-240.981333-100.992-240.981333 100.992-100.992 240.981333 100.992 240.981333 240.981333 100.992zM512 86.016q176 0 301.013333 125.013333t125.013333 301.013333-125.013333 301.013333-301.013333 125.013333-301.013333-125.013333-125.013333-301.013333 125.013333-301.013333 301.013333-125.013333zM621.994667 342.016l59.989333 59.989333-109.994667 109.994667 109.994667 109.994667-59.989333 59.989333-109.994667-109.994667-109.994667 109.994667-59.989333-59.989333 109.994667-109.994667-109.994667-109.994667 59.989333-59.989333 109.994667 109.994667z" p-id="1449"></path></svg>