<?xml version="1.0" standalone="no"?><!DOCTYPE svg PUBLIC "-//W3C//DTD SVG 1.1//EN" "http://www.w3.org/Graphics/SVG/1.1/DTD/svg11.dtd"><svg t="1510240475987" class="icon" style="" viewBox="0 0 1024 1024" version="1.1" xmlns="http://www.w3.org/2000/svg" p-id="787" xmlns:xlink="http://www.w3.org/1999/xlink" width="200" height="200"><defs><style type="text/css"></style></defs><path d="M516.654545 1000.727273c-269.963636 0-488.727273-218.763636-488.727272-488.727273s218.763636-488.727273 488.727272-488.727273 488.727273 218.763636 488.727273 488.727273-218.763636 488.727273-488.727273 488.727273z m0-954.181818c-256 0-465.454545 209.454545-465.454545 465.454545s209.454545 465.454545 465.454545 465.454545 465.454545-209.454545 465.454546-465.454545-207.127273-465.454545-465.454546-465.454545z" p-id="788"></path><path d="M618.705455 418.909091h18.618181c-16.290909-79.127273-102.4-139.636364-200.145454-139.636364-109.381818 0-197.818182 74.472727-197.818182 167.563637C239.36 500.363636 269.614545 546.909091 318.487273 581.818182l-20.945455 60.509091 69.818182-34.909091c25.6 4.654545 44.218182 9.309091 69.818182 9.309091h18.618182c-4.654545-13.963636-6.981818-27.927273-6.981819-41.890909 2.327273-86.109091 76.8-155.927273 169.89091-155.927273z m-104.727273-53.527273c16.290909 0 25.6 9.309091 25.6 25.6 0 13.963636-9.309091 25.6-25.6 25.6-13.963636 0-30.254545-9.309091-30.254546-25.6 0-16.290909 13.963636-25.6 30.254546-25.6z m-139.636364 48.872727c-13.963636 0-30.254545-9.309091-30.254545-25.6 0-13.963636 13.963636-25.6 30.254545-25.6 13.963636 0 25.6 9.309091 25.6 25.6 0 16.290909-11.636364 25.6-25.6 25.6z m425.890909 158.254546c0-79.127273-79.127273-144.290909-167.563636-144.290909-95.418182 0-167.563636 65.163636-167.563636 144.290909 0 79.127273 74.472727 144.290909 167.563636 144.290909 20.945455 0 39.563636-4.654545 60.509091-9.309091l53.527273 30.254546-16.29091-51.2c39.563636-30.254545 69.818182-69.818182 69.818182-114.036364zM576.814545 546.909091c-9.309091 0-20.945455-9.309091-20.945454-20.945455 0-9.309091 9.309091-20.945455 20.945454-20.945454 13.963636 0 25.6 9.309091 25.6 20.945454s-9.309091 20.945455-25.6 20.945455z m109.381819 0c-9.309091 0-18.618182-9.309091-18.618182-20.945455 0-9.309091 9.309091-20.945455 18.618182-20.945454 13.963636 0 25.6 9.309091 25.6 20.945454s-9.309091 20.945455-25.6 20.945455z" p-id="789"></path></svg>